<!-- <svg
   xmlns="http://www.w3.org/2000/svg"
   fill="none"
   stroke="#fff"
   stroke-width="1.25"
   stroke-linecap="round"
   stroke-linejoin="round"
   viewBox="0 0 24 24"
>
   <path
      d="M14.5 4h-5L7 7H4a2 2 0 0 0-2 2v9a2 2 0 0 0 2 2h16a2 2 0 0 0 2-2V9a2 2 0 0 0-2-2h-3l-2.5-3z"
   />
   <circle cx="12" cy="13" r="3" />
</svg> -->
<svg xmlns="http://www.w3.org/2000/svg" viewBox="0 0 36.174 36.174">
   <path
      fill="#fff"
      d="M23.921 20.528c0 3.217-2.617 5.834-5.834 5.834s-5.833-2.617-5.833-5.834 2.616-5.834 5.833-5.834 5.834 2.618 5.834 5.834zm12.253-8.284v16.57a4 4 0 0 1-4 4H4a4 4 0 0 1-4-4v-16.57a4 4 0 0 1 4-4h4.92V6.86a3.5 3.5 0 0 1 3.5-3.5h11.334a3.5 3.5 0 0 1 3.5 3.5v1.383h4.92c2.209.001 4 1.792 4 4.001zm-9.253 8.284c0-4.871-3.963-8.834-8.834-8.834-4.87 0-8.833 3.963-8.833 8.834s3.963 8.834 8.833 8.834c4.871 0 8.834-3.963 8.834-8.834z"
   />
</svg>
