<svg
   xmlns="http://www.w3.org/2000/svg"
   fill-rule="evenodd"
   stroke-linecap="round"
   stroke-miterlimit="3"
   clip-rule="evenodd"
   viewBox="0 0 1500 1500"
>
   <path fill="none" d="M0 0h1500v1500H0z" />
   <clipPath id="a">
      <path d="M0 0h1500v1500H0z" />
   </clipPath>
   <g clip-path="url(#a)">
      <path
         fill="#e5ecef"
         d="M242.77 1277.05c0 38.67 31.34 70.01 70.01 70.01h933.98c38.66 0 70.01-31.34 70.01-70.01h29.03c18.56 0 36.37-7.37 49.5-20.5a70.048 70.048 0 0 0 20.5-49.5c0-18.57-7.38-36.37-20.5-49.5a70.016 70.016 0 0 0-49.5-20.51H119.39c-18.57 0-36.37 7.38-49.5 20.51a69.999 69.999 0 0 0-20.51 49.5c0 18.56 7.38 36.37 20.51 49.5a69.989 69.989 0 0 0 49.5 20.5h123.38Z"
         class="colore5ecef svgShape"
      />
      <path
         fill="none"
         stroke="#72a3b8"
         stroke-width="4"
         d="M326.97 1224.25h0c0 38.67 31.34 70.01 70.01 70.01h933.98c38.66 0 70.01-31.34 70.01-70.01H1430c18.56 0 36.37-7.37 49.5-20.5a70.048 70.048 0 0 0 20.5-49.5h0c0-18.57-7.38-36.37-20.5-49.5a70.016 70.016 0 0 0-49.5-20.51H203.59c-18.57 0-36.37 7.38-49.5 20.51a69.999 69.999 0 0 0-20.51 49.5s0 0 0 0c0 18.56 7.38 36.37 20.51 49.5a69.989 69.989 0 0 0 49.5 20.5h123.38Z"
         class="colorStroke72a3b8 svgStroke"
      />
      <path
         fill="none"
         stroke="#005759"
         stroke-width="100"
         d="M1246.17 328.28 922.75 651.69"
         class="colorStroke005759 svgStroke"
      />
      <path
         fill="none"
         stroke="#39917d"
         stroke-width="100"
         d="M895.25 328.28h350.92"
         class="colorStroke39917d svgStroke"
      />
      <path
         fill="#39917d"
         d="M1354.74 651.692H218.4s42.96 316.956 65.91 486.38c8.07 59.55 58.92 103.974 119.01 103.974h766.5c60.09 0 110.94-44.424 119.01-103.975 22.95-169.423 65.91-486.38 65.91-486.38Z"
         class="color39917d svgShape"
      />
      <path
         fill="#48d085"
         d="M1160.8 651.692H154.78s42.96 316.956 65.91 486.38c8.07 59.55 58.92 103.974 119.01 103.974h636.18c60.09 0 110.94-44.424 119.01-103.975 22.96-169.423 65.91-486.38 65.91-486.38Z"
         class="color48d085 svgShape"
      />
      <path
         fill="#48d085"
         d="M1427.04 651.7a60.65 60.65 0 0 0-17.775-42.91 60.66 60.66 0 0 0-42.906-17.77H454.847a60.679 60.679 0 0 0-60.68 60.68 60.679 60.679 0 0 0 60.68 60.68h911.512a60.66 60.66 0 0 0 42.906-17.77 60.65 60.65 0 0 0 17.774-42.91Z"
         class="color48d085 svgShape"
      />
      <path
         fill="#a7efa4"
         d="M1215.155 651.7a60.67 60.67 0 0 0-17.766-42.91 60.685 60.685 0 0 0-42.91-17.77H139.51a60.68 60.68 0 0 0-60.687 60.68h-.001a60.68 60.68 0 0 0 60.687 60.68H1154.48c16.091 0 31.53-6.39 42.91-17.77a60.67 60.67 0 0 0 17.766-42.91Z"
         class="colora7efa4 svgShape"
      />
      <path
         fill="#005759"
         d="M509.46 858.338a38.434 38.434 0 0 0-11.27-27.19 38.437 38.437 0 0 0-27.19-11.26c-10.2 0-19.98 4.047-27.19 11.26a38.476 38.476 0 0 0-11.27 27.19v234.674a38.459 38.459 0 0 0 11.27 27.19 38.446 38.446 0 0 0 27.19 11.27c10.2 0 19.98-4.057 27.19-11.27a38.417 38.417 0 0 0 11.27-27.19V858.338ZM696.25 858.338a38.434 38.434 0 0 0-11.27-27.19 38.437 38.437 0 0 0-27.19-11.26c-10.2 0-19.98 4.047-27.19 11.26a38.476 38.476 0 0 0-11.27 27.19v234.674a38.459 38.459 0 0 0 11.27 27.19 38.446 38.446 0 0 0 27.19 11.27c10.2 0 19.98-4.057 27.19-11.27a38.417 38.417 0 0 0 11.27-27.19V858.338ZM883.04 858.338a38.434 38.434 0 0 0-11.27-27.19 38.437 38.437 0 0 0-27.19-11.26c-10.2 0-19.98 4.047-27.19 11.26a38.476 38.476 0 0 0-11.27 27.19v234.674a38.459 38.459 0 0 0 11.27 27.19 38.446 38.446 0 0 0 27.19 11.27c10.2 0 19.98-4.057 27.19-11.27a38.417 38.417 0 0 0 11.27-27.19V858.338Z"
         class="color005759 svgShape"
      />
      <path
         fill="none"
         stroke="#48d085"
         stroke-width="100"
         d="m571.83 651.69 323.42-323.41"
         class="colorStroke48d085 svgStroke"
      />
      <circle
         cx="4138.87"
         cy="3204.57"
         r="89.322"
         fill="#39917d"
         transform="translate(-907.906 -494.012) scale(.35752)"
         class="color39917d svgShape"
      />
      <path
         fill="#ffc039"
         d="M257.41 320.937 223.095 132.32c-1.696-9.324-10.644-15.517-19.968-13.821-9.324 1.696-15.517 10.644-13.821 19.968l34.315 188.617c1.697 9.324 10.644 15.517 19.969 13.82 9.324-1.696 15.517-10.643 13.82-19.967ZM134.9 365.655l-51.081-88.137c-4.752-8.2-15.269-10.999-23.468-6.246-8.2 4.752-11 15.267-6.246 23.467l51.08 88.138c4.752 8.2 15.268 10.999 23.468 6.246 8.2-4.752 10.999-15.268 6.246-23.468ZM396.667 329.851l16.768-100.48c1.56-9.35-4.763-18.205-14.111-19.765-9.348-1.56-18.205 4.763-19.765 14.111l-16.767 100.48c-1.56 9.349 4.763 18.205 14.111 19.765 9.35 1.56 18.205-4.763 19.764-14.111Z"
         class="colorffc039 svgShape"
      />
      <g transform="translate(-13.744 50.338)">
         <path
            fill="#48d085"
            d="M477.56 540.68c-16.98 66.22-77.12 115.23-148.61 115.23-71.5 0-131.64-49.01-148.62-115.23h297.23Z"
            class="color48d085 svgShape"
         />
         <circle
            cx="333.754"
            cy="491.03"
            r="144.897"
            fill="#fc743e"
            transform="translate(-45.619 -54.366) scale(1.05878)"
            class="colorfc743e svgShape"
         />
         <text
            x="248.023"
            y="476.486"
            fill="#fff"
            font-family="'RoundedMplus1c-Bold','Rounded Mplus 1c Bold',sans-serif"
            font-size="12"
            font-weight="700"
            transform="translate(-4416.25 -8389.39) scale(18.7562)"
         >
            0
         </text>
      </g>
   </g>
</svg>
