<svg xmlns="http://www.w3.org/2000/svg" viewBox="0 0 1500 1500">
   <g transform="scale(1.875)">
      <path fill="none" d="M0 0h800v800H0z" />
      <circle
         cx="750"
         cy="750"
         r="540.5"
         fill="#e0e9f9"
         fill-rule="evenodd"
         clip-rule="evenodd"
         transform="translate(-23.64 -23.64) scale(.56485)"
         class="colore0e9f9 svgShape"
      />
      <g
         transform="rotate(3.884 1246.644 76.259) scale(1.0884)"
         fill-rule="evenodd"
         clip-rule="evenodd"
      >
         <path
            fill="#3594dc"
            class="color3594dc svgShape"
            d="M526.352 458.598h28.863l-23.317 138.459h-28.863z"
         />
         <path
            fill="#3594dc"
            d="M526.35 458.555s26.132-155.146 34.986-207.839c1.653-9.973 10.346-17.28 20.426-17.28h45.547c2.4 0 4.64 1.067 6.186 2.88 1.547 1.813 2.187 4.213 1.814 6.56-.587 3.52-1.28 7.52-1.814 10.72-.64 3.893-4.053 6.773-8 6.773H588.59l-33.387 198.239H526.35zM298.922 573.584h236.974l-3.952 23.462H294.97z"
            class="color3594dc svgShape"
         />
         <path
            fill="#4fb4f3"
            d="M584.287 286.394h-376.24s24.128 143.874 34.203 203.682c2.503 14.824 15.273 25.67 30.29 25.67h247.254c15.016 0 27.85-10.846 30.29-25.67 10.074-59.808 34.203-203.682 34.203-203.682z"
            class="color4fb4f3 svgShape"
         />
         <path
            fill="#1d77c7"
            d="m320.937 349.568 18.347 105.44c1.28 7.253 8.16 12.106 15.413 10.826 7.253-1.28 12.107-8.16 10.88-15.413L347.23 345.035c-1.28-7.253-8.16-12.107-15.413-10.88-7.253 1.227-12.106 8.16-10.88 15.413z"
            class="color1d77c7 svgShape"
         />
         <path
            fill="#3594dc"
            d="m322.644 359.328 16.64 95.68c1.28 7.253 8.16 12.106 15.413 10.826 7.253-1.28 12.107-8.16 10.88-15.413l-16.64-95.68c-1.28-7.253-8.16-12.106-15.413-10.88-7.253 1.28-12.107 8.214-10.88 15.467z"
            class="color3594dc svgShape"
         />
         <path
            fill="#1d77c7"
            d="m445.08 344.982-18.294 105.386c-1.28 7.253 3.627 14.186 10.88 15.413 7.254 1.28 14.187-3.627 15.414-10.827l18.293-105.439c1.28-7.253-3.627-14.133-10.88-15.413-7.253-1.227-14.133 3.626-15.413 10.88z"
            class="color1d77c7 svgShape"
         />
         <path
            fill="#3594dc"
            d="m443.373 354.955-16.587 95.466c-1.28 7.253 3.627 14.187 10.88 15.413 7.254 1.28 14.187-3.626 15.414-10.826l16.586-95.466c1.28-7.254-3.627-14.187-10.88-15.414-7.253-1.28-14.186 3.574-15.413 10.827z"
            class="color3594dc svgShape"
         />
         <circle
            cx="4221.5"
            cy="2934.9"
            r="74.1"
            fill="#4fb4f3"
            transform="rotate(-86.116 887.879 2212.744) scale(.58893)"
            class="color4fb4f3 svgShape"
         />
         <circle
            cx="4221.5"
            cy="2934.9"
            r="41.5"
            fill="#fff"
            transform="rotate(-86.116 748.041 1248.217) scale(.33009)"
            class="colorfff svgShape"
         />
         <g transform="translate(-214.555)">
            <circle
               cx="4221.5"
               cy="2934.9"
               r="74.1"
               fill="#4fb4f3"
               transform="rotate(-86.116 887.879 2212.744) scale(.58893)"
               class="color4fb4f3 svgShape"
            />
            <circle
               cx="4221.5"
               cy="2934.9"
               r="41.5"
               fill="#fff"
               transform="rotate(-86.116 748.041 1248.217) scale(.33009)"
               class="colorfff svgShape"
            />
         </g>
      </g>
      <path
         fill="#3594dc"
         fill-rule="evenodd"
         d="M315.708 248.76c-3.587 52.818-42.8 94.78-92.588 103.967l-10.963-110.999 103.55 7.032z"
         clip-rule="evenodd"
         class="color3594dc svgShape"
      />
      <g transform="translate(-401.968 -24.545)">
         <circle
            cx="2723.5"
            cy="2299.7"
            r="171"
            fill="#f2763d"
            fill-rule="evenodd"
            clip-rule="evenodd"
            transform="translate(-852.633 -964.234) scale(.53333)"
            class="colorf2763d svgShape"
         />
         <path
            fill="#ed3f07"
            d="M622.338 269.468c0-9.615-1.463-16.93-4.18-22.156-2.717-5.225-6.688-7.942-11.914-7.942-5.016 0-8.987 2.508-11.704 7.942-2.717 5.226-3.971 12.541-3.971 22.156s1.254 16.93 3.97 22.364c2.718 5.225 6.48 7.942 11.705 7.942 5.017 0 8.988-2.717 11.914-7.942 2.717-5.435 4.18-12.75 4.18-22.364zm27.799 0c0 8.36-1.046 15.884-3.345 22.364a50.138 50.138 0 0 1-8.987 16.511c-3.971 4.39-8.57 7.734-13.795 10.033-5.434 2.299-11.286 3.344-17.557 3.344-6.479 0-12.331-1.045-17.765-3.344-5.435-2.3-10.033-5.643-13.795-10.033-3.762-4.389-6.897-9.823-8.988-16.511-2.09-6.48-3.135-14.004-3.135-22.364s1.045-15.885 3.135-22.365c2.09-6.479 5.226-11.913 8.988-16.302 3.971-4.39 8.57-7.734 13.795-10.033 5.434-2.299 11.286-3.344 17.765-3.344 6.27 0 12.123 1.254 17.557 3.344 5.435 2.3 10.033 5.643 13.795 10.033 3.762 4.389 6.897 9.823 8.987 16.302 2.3 6.48 3.345 14.004 3.345 22.365z"
            class="colored3f07 svgShape"
         />
         <path
            fill="#fff"
            d="M616.868 259.938c0-9.615-1.463-16.93-4.18-22.156-2.717-5.225-6.688-7.942-11.914-7.942-5.016 0-8.987 2.508-11.704 7.942-2.717 5.226-3.971 12.541-3.971 22.156s1.254 16.93 3.97 22.364c2.718 5.225 6.48 7.942 11.705 7.942 5.017 0 8.988-2.717 11.914-7.942 2.717-5.435 4.18-12.75 4.18-22.364zm27.799 0c0 8.36-1.046 15.884-3.345 22.364a50.138 50.138 0 0 1-8.987 16.511c-3.971 4.39-8.57 7.734-13.795 10.033-5.434 2.299-11.286 3.344-17.557 3.344-6.479 0-12.331-1.045-17.765-3.344-5.435-2.3-10.033-5.643-13.795-10.033-3.762-4.389-6.897-9.823-8.988-16.511-2.09-6.48-3.135-14.004-3.135-22.364s1.045-15.885 3.135-22.365c2.09-6.479 5.226-11.913 8.988-16.302 3.971-4.39 8.57-7.734 13.795-10.033 5.434-2.299 11.286-3.344 17.765-3.344 6.27 0 12.123 1.254 17.557 3.344 5.435 2.3 10.033 5.643 13.795 10.033 3.762 4.389 6.897 9.823 8.987 16.302 2.3 6.48 3.345 14.004 3.345 22.365z"
            class="colorfff svgShape"
         />
      </g>
      <g fill="#f2763d">
         <path
            d="M72.563 188.434c-.27 0-.596-.055-.867-.109l-52.949-12.844c-2.005-.488-3.252-2.493-2.764-4.498.488-2.006 2.493-3.252 4.498-2.764l52.95 12.844c2.004.488 3.251 2.493 2.763 4.498-.433 1.735-1.95 2.873-3.63 2.873zM131.641 127.77c-1.517 0-2.926-.922-3.468-2.385l-16.096-42.002c-.759-1.95.217-4.064 2.168-4.823 1.95-.759 4.064.217 4.823 2.168l16.096 42.001c.759 1.951-.217 4.065-2.168 4.823-.433.109-.921.217-1.355.217zM90.637 152.88c-.976 0-1.897-.38-2.656-1.084l-50.24-50.24c-1.462-1.463-1.462-3.847 0-5.256 1.464-1.463 3.849-1.463 5.258 0l50.239 50.239c1.463 1.463 1.463 3.848 0 5.257a3.65 3.65 0 0 1-2.601 1.084z"
            class="colorf2763d svgShape"
         />
      </g>
   </g>
</svg>
