<svg viewBox="0 0 64 64" xml:space="preserve" xmlns="http://www.w3.org/2000/svg">
   <linearGradient
      id="a"
      x1="11.37"
      x2="52.63"
      y1="10.594"
      y2="51.855"
      gradientTransform="matrix(1.28 0 0 1.28 -8.96 -9.829)"
      gradientUnits="userSpaceOnUse"
   >
      <stop stop-color="#d7d8d6" offset="0" />
      <stop stop-color="#a4a4a3" offset="1" />
   </linearGradient>
   <path
      d="M6.973 28.113c-4.488 0-7.806-4.18-6.788-8.55L3.182 6.69a2.56 2.56 0 0 1 2.494-1.98h8.789a1.28 1.28 0 0 1 1.27 1.428l-1.84 15.812a6.97 6.97 0 0 1-6.922 6.163zm23.748-6.97V5.99a1.28 1.28 0 0 0-1.28-1.28H19.6a1.279 1.279 0 0 0-1.271 1.132l-1.687 14.496a6.968 6.968 0 0 0 6.922 7.775h.187a6.97 6.97 0 0 0 6.97-6.97zm16.638-.806L45.67 5.84a1.28 1.28 0 0 0-1.27-1.132h-9.84a1.28 1.28 0 0 0-1.28 1.28v15.154a6.97 6.97 0 0 0 6.97 6.97h.186a6.97 6.97 0 0 0 6.923-7.775zm16.457-.775L60.818 6.688a2.56 2.56 0 0 0-2.494-1.98h-8.788a1.28 1.28 0 0 0-1.271 1.429l1.84 15.812a6.97 6.97 0 0 0 6.923 6.163c4.487 0 7.805-4.18 6.787-8.55zM35.74 42.01h-7.483a3.2 3.2 0 0 0-3.2 3.2v13.44a.64.64 0 0 0 .64.64H38.3a.64.64 0 0 0 .64-.64V45.21a3.2 3.2 0 0 0-3.2-3.2zm21.287-10.058a10.803 10.803 0 0 1-8.297-3.878 10.82 10.82 0 0 1-8.296 3.878h-.187a10.789 10.789 0 0 1-8.25-3.83 10.789 10.789 0 0 1-8.25 3.83h-.186a10.82 10.82 0 0 1-8.296-3.878 10.803 10.803 0 0 1-8.297 3.878 10.849 10.849 0 0 1-3.132-.474v20.135a7.68 7.68 0 0 0 7.68 7.68h9.058a.64.64 0 0 0 .64-.64v-13.44a7.04 7.04 0 0 1 7.04-7.04h7.483a7.04 7.04 0 0 1 7.04 7.04v13.44a.64.64 0 0 0 .64.64h9.06a7.68 7.68 0 0 0 7.68-7.68V31.478a10.849 10.849 0 0 1-3.133.474z"
      fill="url(#a)"
      data-original="url(#a)"
   />
</svg>
