<svg viewBox="0 0 256 256" xml:space="preserve" xmlns="http://www.w3.org/2000/svg">
   <linearGradient
      id="a"
      x1="11.37"
      x2="52.63"
      y1="10.594"
      y2="51.855"
      gradientTransform="translate(30.449 28.378) scale(3.0485)"
      gradientUnits="userSpaceOnUse"
   >
      <stop stop-color="#d7d8d6" offset="0" />
      <stop stop-color="#a4a4a3" offset="1" />
   </linearGradient>
   <rect width="256" height="256" rx="0" ry="0" fill="#f0f0f0" paint-order="markers fill stroke" />
   <path
      d="M68.394 118.74c-10.688 0-18.59-9.953-16.166-20.361l7.14-30.661a6.097 6.097 0 0 1 5.938-4.716h20.931a3.049 3.049 0 0 1 3.028 3.402l-4.384 37.658a16.599 16.599 0 0 1-16.486 14.68zm56.559-16.599V66.05a3.049 3.049 0 0 0-3.049-3.049H98.471a3.045 3.045 0 0 0-3.028 2.695l-4.018 34.524a16.596 16.596 0 0 0 16.486 18.517h.445a16.599 16.599 0 0 0 16.6-16.599zm39.626-1.92-4.018-34.525a3.049 3.049 0 0 0-3.027-2.694H134.1a3.049 3.049 0 0 0-3.049 3.048v36.091a16.599 16.599 0 0 0 16.6 16.6h.444a16.599 16.599 0 0 0 16.486-18.518zm39.195-1.845-7.14-30.661a6.097 6.097 0 0 0-5.938-4.716h-20.931a3.049 3.049 0 0 0-3.028 3.402l4.384 37.658a16.599 16.599 0 0 0 16.486 14.68c10.688 0 18.59-9.954 16.166-20.362zm-66.864 53.463h-17.822a7.621 7.621 0 0 0-7.621 7.621v32.01a1.524 1.524 0 0 0 1.524 1.524h30.016a1.524 1.524 0 0 0 1.524-1.525V159.46a7.621 7.621 0 0 0-7.62-7.621zm50.698-23.954a25.729 25.729 0 0 1-19.76-9.237 25.769 25.769 0 0 1-19.758 9.237h-.445a25.695 25.695 0 0 1-19.648-9.124 25.695 25.695 0 0 1-19.648 9.124h-.445a25.769 25.769 0 0 1-19.758-9.237 25.729 25.729 0 0 1-19.76 9.237 25.838 25.838 0 0 1-7.46-1.131v47.954a18.291 18.291 0 0 0 18.291 18.291h21.574a1.524 1.524 0 0 0 1.524-1.524v-32.01a16.767 16.767 0 0 1 16.767-16.766h17.822a16.767 16.767 0 0 1 16.767 16.767v32.009a1.524 1.524 0 0 0 1.525 1.524h21.574a18.291 18.291 0 0 0 18.29-18.291v-47.954a25.838 25.838 0 0 1-7.459 1.131z"
      fill="url(#a)"
      data-original="url(#a)"
   />
</svg>
